<?xml version="1.0" encoding="UTF-8"?>
<!DOCTYPE svg PUBLIC "-//W3C//DTD SVG 1.1//EN" "http://www.w3.org/Graphics/SVG/1.1/DTD/svg11.dtd">
<svg xmlns="http://www.w3.org/2000/svg" version="1.1" width="500px" height="500px" style="shape-rendering:geometricPrecision; text-rendering:geometricPrecision; image-rendering:optimizeQuality; fill-rule:evenodd; clip-rule:evenodd" xmlns:xlink="http://www.w3.org/1999/xlink">
<g><path style="opacity:0.004" fill="#fefffe" d="M 104.5,0.5 C 105.833,1.16667 105.833,1.16667 104.5,0.5 Z"/></g>
<g><path style="opacity:0.004" fill="#fefffe" d="M 85.5,1.5 C 86.8333,2.16667 86.8333,2.16667 85.5,1.5 Z"/></g>
<g><path style="opacity:0.004" fill="#fefffe" d="M 66.5,5.5 C 67.8333,6.16667 67.8333,6.16667 66.5,5.5 Z"/></g>
<g><path style="opacity:0.004" fill="#fefffe" d="M 133.5,11.5 C 134.833,12.1667 134.833,12.1667 133.5,11.5 Z"/></g>
<g><path style="opacity:0.004" fill="#fefffe" d="M 401.5,18.5 C 402.833,19.1667 402.833,19.1667 401.5,18.5 Z"/></g>
<g><path style="opacity:0.004" fill="#fefffe" d="M 165.5,40.5 C 166.833,41.1667 166.833,41.1667 165.5,40.5 Z"/></g>
<g><path style="opacity:0.004" fill="#fefffe" d="M 357.5,42.5 C 358.833,43.1667 358.833,43.1667 357.5,42.5 Z"/></g>
<g><path style="opacity:0.004" fill="#fefffe" d="M 230.5,51.5 C 231.833,52.1667 231.833,52.1667 230.5,51.5 Z"/></g>
<g><path style="opacity:0.004" fill="#fefffe" d="M 305.5,73.5 C 306.833,74.1667 306.833,74.1667 305.5,73.5 Z"/></g>
<g><path style="opacity:0.004" fill="#fefffe" d="M 259.5,88.5 C 260.833,89.1667 260.833,89.1667 259.5,88.5 Z"/></g>
<g><path style="opacity:0.004" fill="#fefffe" d="M 147.5,89.5 C 148.833,90.1667 148.833,90.1667 147.5,89.5 Z"/></g>
<g><path style="opacity:0.004" fill="#fefffe" d="M 309.5,96.5 C 310.833,97.1667 310.833,97.1667 309.5,96.5 Z"/></g>
<g><path style="opacity:0.004" fill="#fefffe" d="M 482.5,100.5 C 483.833,101.167 483.833,101.167 482.5,100.5 Z"/></g>
<g><path style="opacity:0.004" fill="#fefffe" d="M 431.5,113.5 C 432.833,114.167 432.833,114.167 431.5,113.5 Z"/></g>
<g><path style="opacity:0.004" fill="#fefffe" d="M 214.5,119.5 C 215.833,120.167 215.833,120.167 214.5,119.5 Z"/></g>
<g><path style="opacity:0.004" fill="#fefffe" d="M 418.5,131.5 C 419.833,132.167 419.833,132.167 418.5,131.5 Z"/></g>
<g><path style="opacity:0.004" fill="#fefffe" d="M 336.5,133.5 C 337.833,134.167 337.833,134.167 336.5,133.5 Z"/></g>
<g><path style="opacity:0.004" fill="#fefffe" d="M 204.5,139.5 C 205.833,140.167 205.833,140.167 204.5,139.5 Z"/></g>
<g><path style="opacity:0.004" fill="#fefffe" d="M 54.5,150.5 C 55.8333,151.167 55.8333,151.167 54.5,150.5 Z"/></g>
<g><path style="opacity:0.004" fill="#fefffe" d="M 88.5,150.5 C 89.8333,151.167 89.8333,151.167 88.5,150.5 Z"/></g>
<g><path style="opacity:0.004" fill="#fefffe" d="M 383.5,152.5 C 384.833,153.167 384.833,153.167 383.5,152.5 Z"/></g>
<g><path style="opacity:0.004" fill="#fefffe" d="M 113.5,160.5 C 114.833,161.167 114.833,161.167 113.5,160.5 Z"/></g>
<g><path style="opacity:0.004" fill="#fefffe" d="M 58.5,165.5 C 59.8333,166.167 59.8333,166.167 58.5,165.5 Z"/></g>
<g><path style="opacity:0.004" fill="#fefffe" d="M 43.5,169.5 C 44.8333,170.167 44.8333,170.167 43.5,169.5 Z"/></g>
<g><path style="opacity:0.004" fill="#fefffe" d="M 497.5,174.5 C 498.833,175.167 498.833,175.167 497.5,174.5 Z"/></g>
<g><path style="opacity:0.004" fill="#fefffe" d="M 19.5,178.5 C 20.8333,179.167 20.8333,179.167 19.5,178.5 Z"/></g>
<g><path style="opacity:0.004" fill="#fefffe" d="M 356.5,183.5 C 357.833,184.167 357.833,184.167 356.5,183.5 Z"/></g>
<g><path style="opacity:0.004" fill="#fefffe" d="M 136.5,192.5 C 137.833,193.167 137.833,193.167 136.5,192.5 Z"/></g>
<g><path style="opacity:0.004" fill="#fefffe" d="M 17.5,193.5 C 18.8333,194.167 18.8333,194.167 17.5,193.5 Z"/></g>
<g><path style="opacity:0.004" fill="#fefffe" d="M 62.5,198.5 C 63.8333,199.167 63.8333,199.167 62.5,198.5 Z"/></g>
<g><path style="opacity:0.004" fill="#fefffe" d="M 184.5,201.5 C 185.833,202.167 185.833,202.167 184.5,201.5 Z"/></g>
<g><path style="opacity:0.004" fill="#fefffe" d="M 465.5,202.5 C 466.833,203.167 466.833,203.167 465.5,202.5 Z"/></g>
<g><path style="opacity:0.004" fill="#fefffe" d="M 396.5,212.5 C 397.833,213.167 397.833,213.167 396.5,212.5 Z"/></g>
<g><path style="opacity:0.004" fill="#fefffe" d="M 460.5,215.5 C 461.833,216.167 461.833,216.167 460.5,215.5 Z"/></g>
<g><path style="opacity:0.004" fill="#fefffe" d="M 186.5,230.5 C 187.833,231.167 187.833,231.167 186.5,230.5 Z"/></g>
<g><path style="opacity:1" fill="#252425" d="M 230.5,241.5 C 247.966,238.449 253.299,244.949 246.5,261C 241.292,262.397 235.959,262.897 230.5,262.5C 230.5,255.5 230.5,248.5 230.5,241.5 Z M 241.5,245.5 C 244.572,248.412 245.238,251.912 243.5,256C 241.713,258.134 239.38,258.967 236.5,258.5C 236.5,254.167 236.5,249.833 236.5,245.5C 238.167,245.5 239.833,245.5 241.5,245.5 Z"/></g>
<g><path style="opacity:1" fill="#0d0d0d" d="M 267.5,241.5 C 267.5,242.5 267.5,243.5 267.5,244.5C 263.833,244.5 260.167,244.5 256.5,244.5C 256.216,246.415 256.549,248.081 257.5,249.5C 260.833,249.5 264.167,249.5 267.5,249.5C 267.5,250.833 267.5,252.167 267.5,253.5C 264.167,253.5 260.833,253.5 257.5,253.5C 256.539,255.265 256.205,257.265 256.5,259.5C 260.5,259.5 264.5,259.5 268.5,259.5C 268.5,260.5 268.5,261.5 268.5,262.5C 263.167,262.5 257.833,262.5 252.5,262.5C 252.5,255.5 252.5,248.5 252.5,241.5C 257.5,241.5 262.5,241.5 267.5,241.5 Z"/></g>
<g><path style="opacity:1" fill="#272727" d="M 278.5,253.5 C 279.032,256.46 279.699,256.793 280.5,254.5C 281.344,250.126 282.344,245.793 283.5,241.5C 285.527,241.338 287.527,241.505 289.5,242C 286.47,248.591 284.136,255.424 282.5,262.5C 280.5,262.5 278.5,262.5 276.5,262.5C 274.5,255.5 272.5,248.5 270.5,241.5C 272.288,241.215 273.955,241.548 275.5,242.5C 276.97,246.048 277.97,249.715 278.5,253.5 Z"/></g>
<g><path style="opacity:0.65" fill="#636363" d="M 267.5,241.5 C 268.434,242.568 268.768,243.901 268.5,245.5C 264.833,245.5 261.167,245.5 257.5,245.5C 257.5,246.833 257.5,248.167 257.5,249.5C 256.549,248.081 256.216,246.415 256.5,244.5C 260.167,244.5 263.833,244.5 267.5,244.5C 267.5,243.5 267.5,242.5 267.5,241.5 Z"/></g>
<g><path style="opacity:0.165" fill="#b2b2af" d="M 241.5,245.5 C 239.833,245.5 238.167,245.5 236.5,245.5C 236.5,249.833 236.5,254.167 236.5,258.5C 235.514,254.03 235.181,249.363 235.5,244.5C 237.735,244.205 239.735,244.539 241.5,245.5 Z"/></g>
<g><path style="opacity:0.416" fill="#b3b3b3" d="M 278.5,253.5 C 279.167,253.833 279.833,254.167 280.5,254.5C 279.699,256.793 279.032,256.46 278.5,253.5 Z"/></g>
<g><path style="opacity:1" fill="#3f62aa" d="M 223.5,240.5 C 225.167,240.5 226.833,240.5 228.5,240.5C 227.307,244.549 225.307,248.216 222.5,251.5C 224.957,254.914 227.291,258.414 229.5,262C 224.329,263.465 221.162,261.631 220,256.5C 218.341,257.817 217.174,259.483 216.5,261.5C 214.235,262.647 211.902,262.814 209.5,262C 212.08,258.842 214.413,255.508 216.5,252C 214.5,248.667 212.5,245.333 210.5,242C 212.5,241.333 214.5,241.333 216.5,242C 217.376,243.586 218.376,245.086 219.5,246.5C 220.844,244.471 222.177,242.471 223.5,240.5 Z"/></g>
<g><path style="opacity:0.699" fill="#676767" d="M 257.5,253.5 C 257.5,255.167 257.5,256.833 257.5,258.5C 261.5,258.5 265.5,258.5 269.5,258.5C 269.768,260.099 269.434,261.432 268.5,262.5C 268.5,261.5 268.5,260.5 268.5,259.5C 264.5,259.5 260.5,259.5 256.5,259.5C 256.205,257.265 256.539,255.265 257.5,253.5 Z"/></g>
<g><path style="opacity:0.004" fill="#fefffe" d="M 202.5,260.5 C 203.833,261.167 203.833,261.167 202.5,260.5 Z"/></g>
<g><path style="opacity:0.004" fill="#fefffe" d="M 337.5,264.5 C 338.833,265.167 338.833,265.167 337.5,264.5 Z"/></g>
<g><path style="opacity:0.004" fill="#fefffe" d="M 284.5,268.5 C 285.833,269.167 285.833,269.167 284.5,268.5 Z"/></g>
<g><path style="opacity:0.004" fill="#fefffe" d="M 301.5,277.5 C 302.833,278.167 302.833,278.167 301.5,277.5 Z"/></g>
<g><path style="opacity:0.004" fill="#fefffe" d="M 215.5,288.5 C 216.833,289.167 216.833,289.167 215.5,288.5 Z"/></g>
<g><path style="opacity:0.004" fill="#fefffe" d="M 292.5,290.5 C 293.833,291.167 293.833,291.167 292.5,290.5 Z"/></g>
<g><path style="opacity:0.004" fill="#fefffe" d="M 379.5,293.5 C 380.833,294.167 380.833,294.167 379.5,293.5 Z"/></g>
<g><path style="opacity:0.004" fill="#fefffe" d="M 373.5,298.5 C 374.833,299.167 374.833,299.167 373.5,298.5 Z"/></g>
<g><path style="opacity:0.004" fill="#fefffe" d="M 109.5,301.5 C 110.833,302.167 110.833,302.167 109.5,301.5 Z"/></g>
<g><path style="opacity:0.004" fill="#fefffe" d="M 316.5,303.5 C 317.833,304.167 317.833,304.167 316.5,303.5 Z"/></g>
<g><path style="opacity:0.004" fill="#fefffe" d="M 372.5,312.5 C 373.833,313.167 373.833,313.167 372.5,312.5 Z"/></g>
<g><path style="opacity:0.004" fill="#fefffe" d="M 320.5,313.5 C 321.833,314.167 321.833,314.167 320.5,313.5 Z"/></g>
<g><path style="opacity:0.004" fill="#fefffe" d="M 29.5,321.5 C 30.8333,322.167 30.8333,322.167 29.5,321.5 Z"/></g>
<g><path style="opacity:0.004" fill="#fefffe" d="M 105.5,329.5 C 106.833,330.167 106.833,330.167 105.5,329.5 Z"/></g>
<g><path style="opacity:0.004" fill="#fefffe" d="M 306.5,329.5 C 307.833,330.167 307.833,330.167 306.5,329.5 Z"/></g>
<g><path style="opacity:0.004" fill="#fefffe" d="M 499.5,336.5 C 499.5,336.833 499.5,337.167 499.5,337.5C 498.83,337.019 498.83,336.685 499.5,336.5 Z"/></g>
<g><path style="opacity:0.004" fill="#fefffe" d="M 87.5,339.5 C 88.8333,340.167 88.8333,340.167 87.5,339.5 Z"/></g>
<g><path style="opacity:0.004" fill="#fefffe" d="M 254.5,349.5 C 255.833,350.167 255.833,350.167 254.5,349.5 Z"/></g>
<g><path style="opacity:0.004" fill="#fefffe" d="M 409.5,352.5 C 410.833,353.167 410.833,353.167 409.5,352.5 Z"/></g>
<g><path style="opacity:0.004" fill="#fefffe" d="M 85.5,354.5 C 86.8333,355.167 86.8333,355.167 85.5,354.5 Z"/></g>
<g><path style="opacity:0.004" fill="#fefffe" d="M 39.5,357.5 C 40.8333,358.167 40.8333,358.167 39.5,357.5 Z"/></g>
<g><path style="opacity:0.004" fill="#fefffe" d="M 42.5,359.5 C 43.8333,360.167 43.8333,360.167 42.5,359.5 Z"/></g>
<g><path style="opacity:0.004" fill="#fefffe" d="M 97.5,362.5 C 98.8333,363.167 98.8333,363.167 97.5,362.5 Z"/></g>
<g><path style="opacity:0.004" fill="#fefffe" d="M 16.5,367.5 C 17.8333,368.167 17.8333,368.167 16.5,367.5 Z"/></g>
<g><path style="opacity:0.004" fill="#fefffe" d="M 409.5,370.5 C 410.833,371.167 410.833,371.167 409.5,370.5 Z"/></g>
<g><path style="opacity:0.004" fill="#fefffe" d="M 164.5,373.5 C 165.833,374.167 165.833,374.167 164.5,373.5 Z"/></g>
<g><path style="opacity:0.004" fill="#fefffe" d="M 101.5,376.5 C 102.833,377.167 102.833,377.167 101.5,376.5 Z"/></g>
<g><path style="opacity:0.004" fill="#fefffe" d="M 64.5,381.5 C 65.8333,382.167 65.8333,382.167 64.5,381.5 Z"/></g>
<g><path style="opacity:0.004" fill="#fefffe" d="M 11.5,384.5 C 12.8333,385.167 12.8333,385.167 11.5,384.5 Z"/></g>
<g><path style="opacity:0.004" fill="#fefffe" d="M 160.5,384.5 C 161.833,385.167 161.833,385.167 160.5,384.5 Z"/></g>
<g><path style="opacity:0.004" fill="#fefffe" d="M 205.5,388.5 C 206.833,389.167 206.833,389.167 205.5,388.5 Z"/></g>
<g><path style="opacity:0.004" fill="#fefffe" d="M 292.5,400.5 C 293.833,401.167 293.833,401.167 292.5,400.5 Z"/></g>
<g><path style="opacity:0.004" fill="#fefffe" d="M 395.5,401.5 C 396.833,402.167 396.833,402.167 395.5,401.5 Z"/></g>
<g><path style="opacity:0.004" fill="#fefffe" d="M 140.5,403.5 C 141.833,404.167 141.833,404.167 140.5,403.5 Z"/></g>
<g><path style="opacity:0.004" fill="#fefffe" d="M 419.5,407.5 C 420.833,408.167 420.833,408.167 419.5,407.5 Z"/></g>
<g><path style="opacity:0.004" fill="#fefffe" d="M 314.5,409.5 C 315.833,410.167 315.833,410.167 314.5,409.5 Z"/></g>
<g><path style="opacity:0.004" fill="#fefffe" d="M 349.5,416.5 C 350.833,417.167 350.833,417.167 349.5,416.5 Z"/></g>
<g><path style="opacity:0.004" fill="#fefffe" d="M 386.5,418.5 C 387.833,419.167 387.833,419.167 386.5,418.5 Z"/></g>
<g><path style="opacity:0.004" fill="#fefffe" d="M 79.5,428.5 C 80.8333,429.167 80.8333,429.167 79.5,428.5 Z"/></g>
<g><path style="opacity:0.004" fill="#fefffe" d="M 159.5,431.5 C 160.833,432.167 160.833,432.167 159.5,431.5 Z"/></g>
<g><path style="opacity:0.004" fill="#fefffe" d="M 454.5,434.5 C 455.833,435.167 455.833,435.167 454.5,434.5 Z"/></g>
<g><path style="opacity:0.004" fill="#fefffe" d="M 112.5,436.5 C 113.833,437.167 113.833,437.167 112.5,436.5 Z"/></g>
<g><path style="opacity:0.004" fill="#fefffe" d="M 174.5,439.5 C 175.833,440.167 175.833,440.167 174.5,439.5 Z"/></g>
<g><path style="opacity:0.004" fill="#fefffe" d="M 256.5,441.5 C 257.833,442.167 257.833,442.167 256.5,441.5 Z"/></g>
<g><path style="opacity:0.004" fill="#fefffe" d="M 481.5,447.5 C 482.833,448.167 482.833,448.167 481.5,447.5 Z"/></g>
<g><path style="opacity:0.004" fill="#fefffe" d="M 488.5,452.5 C 489.833,453.167 489.833,453.167 488.5,452.5 Z"/></g>
<g><path style="opacity:0.004" fill="#fefffe" d="M 328.5,480.5 C 329.833,481.167 329.833,481.167 328.5,480.5 Z"/></g>
<g><path style="opacity:0.004" fill="#fefffe" d="M 362.5,480.5 C 363.833,481.167 363.833,481.167 362.5,480.5 Z"/></g>
<g><path style="opacity:0.004" fill="#fefffe" d="M 82.5,485.5 C 83.8333,486.167 83.8333,486.167 82.5,485.5 Z"/></g>
<g><path style="opacity:0.004" fill="#fefffe" d="M 194.5,493.5 C 195.833,494.167 195.833,494.167 194.5,493.5 Z"/></g>
</svg>
