<?xml version="1.0" encoding="UTF-8"?>
<!DOCTYPE svg PUBLIC "-//W3C//DTD SVG 1.1//EN" "http://www.w3.org/Graphics/SVG/1.1/DTD/svg11.dtd">
<svg xmlns="http://www.w3.org/2000/svg" version="1.1" width="500px" height="500px" style="shape-rendering:geometricPrecision; text-rendering:geometricPrecision; image-rendering:optimizeQuality; fill-rule:evenodd; clip-rule:evenodd" xmlns:xlink="http://www.w3.org/1999/xlink">
<g><path style="opacity:1" fill="#fefefe" d="M -0.5,-0.5 C 166.167,-0.5 332.833,-0.5 499.5,-0.5C 499.5,166.167 499.5,332.833 499.5,499.5C 332.833,499.5 166.167,499.5 -0.5,499.5C -0.5,332.833 -0.5,166.167 -0.5,-0.5 Z"/></g>
<g><path style="opacity:1" fill="#1a53b1" d="M 210.5,242.5 C 212.364,241.207 214.364,241.207 216.5,242.5C 217.248,244.332 218.248,245.999 219.5,247.5C 220.711,245.578 222.044,243.745 223.5,242C 225.167,241.333 226.833,241.333 228.5,242C 225.739,244.852 223.739,248.185 222.5,252C 224.287,255.29 226.287,258.457 228.5,261.5C 226.926,262.631 225.259,262.798 223.5,262C 222.521,259.863 221.188,258.029 219.5,256.5C 217.973,258.193 216.64,260.027 215.5,262C 213.833,262.667 212.167,262.667 210.5,262C 212.758,258.816 214.758,255.483 216.5,252C 215.356,248.193 213.356,245.027 210.5,242.5 Z"/></g>
<g><path style="opacity:1" fill="#0e0e0e" d="M 231.5,241.5 C 236.297,241.121 240.964,241.621 245.5,243C 250.669,248.896 250.669,254.896 245.5,261C 240.934,262.309 236.267,262.809 231.5,262.5C 231.5,255.5 231.5,248.5 231.5,241.5 Z"/></g>
<g><path style="opacity:1" fill="#080808" d="M 267.5,241.5 C 267.5,242.5 267.5,243.5 267.5,244.5C 263.833,244.5 260.167,244.5 256.5,244.5C 256.216,246.415 256.549,248.081 257.5,249.5C 260.5,249.5 263.5,249.5 266.5,249.5C 266.5,250.5 266.5,251.5 266.5,252.5C 263.167,252.5 259.833,252.5 256.5,252.5C 256.5,254.833 256.5,257.167 256.5,259.5C 260.5,259.5 264.5,259.5 268.5,259.5C 268.5,260.5 268.5,261.5 268.5,262.5C 263.167,262.5 257.833,262.5 252.5,262.5C 252.5,255.5 252.5,248.5 252.5,241.5C 257.5,241.5 262.5,241.5 267.5,241.5 Z"/></g>
<g><path style="opacity:1" fill="#121212" d="M 270.5,242.5 C 271.919,241.549 273.585,241.216 275.5,241.5C 278.564,259.913 281.231,259.913 283.5,241.5C 285.288,241.215 286.955,241.548 288.5,242.5C 286.568,247.796 284.735,253.129 283,258.5C 281.789,262.462 279.789,263.129 277,260.5C 275.099,254.287 272.932,248.287 270.5,242.5 Z"/></g>
<g><path style="opacity:1" fill="#626262" d="M 267.5,241.5 C 268.434,242.568 268.768,243.901 268.5,245.5C 264.833,245.5 261.167,245.5 257.5,245.5C 257.5,246.833 257.5,248.167 257.5,249.5C 256.549,248.081 256.216,246.415 256.5,244.5C 260.167,244.5 263.833,244.5 267.5,244.5C 267.5,243.5 267.5,242.5 267.5,241.5 Z"/></g>
<g><path style="opacity:1" fill="#b2b2b2" d="M 241.5,245.5 C 239.833,245.5 238.167,245.5 236.5,245.5C 236.5,249.833 236.5,254.167 236.5,258.5C 235.514,254.03 235.181,249.363 235.5,244.5C 237.735,244.205 239.735,244.539 241.5,245.5 Z"/></g>
<g><path style="opacity:1" fill="#fbfbfb" d="M 241.5,245.5 C 242.458,245.953 243.292,246.619 244,247.5C 245.023,251.317 244.523,254.817 242.5,258C 240.527,258.495 238.527,258.662 236.5,258.5C 236.5,254.167 236.5,249.833 236.5,245.5C 238.167,245.5 239.833,245.5 241.5,245.5 Z"/></g>
<g><path style="opacity:1" fill="#4d4d4d" d="M 266.5,249.5 C 267.434,250.568 267.768,251.901 267.5,253.5C 264.167,253.5 260.833,253.5 257.5,253.5C 257.5,255.167 257.5,256.833 257.5,258.5C 261.371,258.185 265.038,258.518 268.5,259.5C 264.5,259.5 260.5,259.5 256.5,259.5C 256.5,257.167 256.5,254.833 256.5,252.5C 259.833,252.5 263.167,252.5 266.5,252.5C 266.5,251.5 266.5,250.5 266.5,249.5 Z"/></g>
</svg>
